<svg width="16" height="16" viewBox="0 0 16 16" fill="none" xmlns="http://www.w3.org/2000/svg">
<path fill-rule="evenodd" clip-rule="evenodd" d="M0.436445 0.320082C0.981321 -0.137157 1.82458 -0.10009 2.31993 0.402873L8 6.17033L13.6801 0.402873C14.1754 -0.10009 15.0187 -0.137157 15.5636 0.320082C16.1084 0.777321 16.1486 1.55572 15.6532 2.05868L9.80195 8L15.6532 13.9413C16.1486 14.4443 16.1084 15.2227 15.5636 15.6799C15.0187 16.1372 14.1754 16.1001 13.6801 15.5971L8 9.82967L2.31993 15.5971C1.82458 16.1001 0.981321 16.1372 0.436445 15.6799C-0.108431 15.2227 -0.148586 14.4443 0.346756 13.9413L6.19805 8L0.346756 2.05868C-0.148586 1.55572 -0.108431 0.777321 0.436445 0.320082Z" fill="#333333"/>
</svg>
