<svg width="12" height="12" viewBox="0 0 12 12" fill="none" xmlns="http://www.w3.org/2000/svg">
<path d="M10.2422 0H1.75782C0.788635 0 0 0.788635 0 1.75782V10.2422C0 11.2113 0.788635 12 1.75782 12H10.2422C11.2113 12 12 11.2113 12 10.2422V1.75782C12 0.788635 11.2113 0 10.2422 0ZM6.02344 9.14062C4.27872 9.14062 2.85938 7.72128 2.85938 5.97656C2.85938 4.23185 4.27872 2.8125 6.02344 2.8125C7.76815 2.8125 9.1875 4.23185 9.1875 5.97656C9.1875 7.72128 7.76815 9.14062 6.02344 9.14062ZM9.53908 3.51562C8.95752 3.51562 8.48438 3.04248 8.48438 2.46094C8.48438 1.87939 8.95752 1.40625 9.53908 1.40625C10.1206 1.40625 10.5938 1.87939 10.5938 2.46094C10.5938 3.04248 10.1206 3.51562 9.53908 3.51562Z" fill="#FDCD60"/>
</svg>
