<svg width="125" height="125" viewBox="0 0 125 125" fill="none" xmlns="http://www.w3.org/2000/svg">
<path d="M62.5 0C28.038 0 0 28.038 0 62.5C0 96.962 28.038 125 62.5 125C96.9647 125 125 96.962 125 62.5C125 28.038 96.9647 0 62.5 0ZM62.5 119.565C31.0326 119.565 5.43478 93.9674 5.43478 62.5C5.43478 31.0326 31.0326 5.43478 62.5 5.43478C93.9647 5.43478 119.565 31.0326 119.565 62.5C119.565 93.9674 93.9647 119.565 62.5 119.565Z" fill="#FDCD60"/>
<ellipse cx="64.0245" cy="62.5" rx="59.4512" ry="59.4512" fill="#FDCD60"/>
<path d="M48.9132 51.6304C48.9132 47.1359 45.2556 43.4783 40.7611 43.4783C36.2665 43.4783 32.6089 47.1359 32.6089 51.6304C32.6089 56.125 36.2665 59.7826 40.7611 59.7826C45.2556 59.7826 48.9132 56.125 48.9132 51.6304ZM38.0437 51.6304C38.0437 50.1332 39.2638 48.9131 40.7611 48.9131C42.2583 48.9131 43.4785 50.1332 43.4785 51.6304C43.4785 53.1277 42.2583 54.3478 40.7611 54.3478C39.2638 54.3478 38.0437 53.1277 38.0437 51.6304Z" fill="white"/>
<path d="M84.2391 43.4783C79.7445 43.4783 76.0869 47.1359 76.0869 51.6304C76.0869 56.125 79.7445 59.7826 84.2391 59.7826C88.7336 59.7826 92.3912 56.125 92.3912 51.6304C92.3912 47.1359 88.7336 43.4783 84.2391 43.4783ZM84.2391 54.3478C82.7391 54.3478 81.5217 53.1277 81.5217 51.6304C81.5217 50.1332 82.7391 48.9131 84.2391 48.9131C85.7391 48.9131 86.9565 50.1332 86.9565 51.6304C86.9565 53.1277 85.7391 54.3478 84.2391 54.3478Z" fill="white"/>
<path d="M62.4997 76.0869C52.3692 76.0869 42.717 80.3777 36.0187 87.8614C35.0187 88.9809 35.1138 90.6983 36.2306 91.6983C37.3502 92.701 39.0676 92.6032 40.0676 91.4863C45.7361 85.1521 53.9127 81.5217 62.4997 81.5217C71.0866 81.5217 79.2632 85.1521 84.9317 91.4863C85.467 92.0869 86.2116 92.3912 86.9562 92.3912C87.6002 92.3912 88.2524 92.163 88.7687 91.6983C89.8855 90.6983 89.9806 88.9809 88.9806 87.8614C82.2823 80.3804 72.6328 76.0869 62.4997 76.0869Z" fill="white"/>
</svg>
