<svg width="29" height="29" viewBox="0 0 29 29" fill="none" xmlns="http://www.w3.org/2000/svg">
<g clip-path="url(#clip0_25_613)">
<path d="M14.25 0.25C6.51782 0.25 0.25 6.51782 0.25 14.25C0.25 21.9822 6.51782 28.25 14.25 28.25C21.9822 28.25 28.25 21.9822 28.25 14.25C28.25 6.51782 21.9822 0.25 14.25 0.25ZM18.8954 20.4371C18.6752 20.6561 18.4444 20.8859 18.2569 21.0739C18.0881 21.2432 17.969 21.4521 17.9086 21.6785C17.8234 21.998 17.7545 22.3209 17.6394 22.6308L16.6577 25.2756C15.8809 25.4449 15.077 25.5403 14.25 25.5403V23.9947C14.3454 23.2823 13.8187 21.9477 12.9725 21.1015C12.6338 20.7628 12.4435 20.3033 12.4435 19.824V18.017C12.4435 17.3599 12.0896 16.7559 11.5144 16.4381C10.7031 15.9893 9.54927 15.3621 8.75895 14.9641C8.11089 14.6378 7.51137 14.2223 6.97226 13.7363L6.9271 13.6956C6.54157 13.3476 6.19927 12.9546 5.90758 12.5248C5.37806 11.7475 4.51548 10.4689 3.95492 9.6379C5.11048 7.06936 7.19298 5.00661 9.78073 3.88605L11.1361 4.56403C11.7368 4.86435 12.4435 4.42798 12.4435 3.75621V3.11831C12.8946 3.04548 13.3535 2.99919 13.8204 2.98169L15.418 4.57927C15.7708 4.9321 15.7708 5.50395 15.418 5.85677L15.1532 6.12097L14.5695 6.70468C14.3934 6.88081 14.3934 7.16702 14.5695 7.34314L14.8343 7.6079C15.0104 7.78403 15.0104 8.07024 14.8343 8.24637L14.3827 8.69798C14.2979 8.78261 14.1829 8.83012 14.0631 8.83008H13.5556C13.4382 8.83008 13.3253 8.87581 13.2406 8.95823L12.6806 9.50298C12.612 9.56983 12.5664 9.65676 12.5503 9.75122C12.5343 9.84568 12.5487 9.9428 12.5915 10.0285L13.4715 11.7893C13.6217 12.0896 13.4032 12.443 13.0679 12.443H12.7495C12.6406 12.443 12.5356 12.4035 12.4537 12.3323L11.9298 11.8773C11.8113 11.7745 11.668 11.7043 11.5141 11.6736C11.3602 11.6429 11.2009 11.6528 11.052 11.7023L9.29242 12.2889C9.15808 12.3337 9.04124 12.4196 8.95847 12.5345C8.87569 12.6494 8.83117 12.7874 8.83121 12.929C8.83121 13.1848 8.97573 13.4179 9.20435 13.5325L9.82984 13.8452C10.361 14.1111 10.947 14.2494 11.5409 14.2494C12.1348 14.2494 12.8161 15.79 13.3473 16.0559H17.1155C17.5948 16.0559 18.0537 16.2461 18.393 16.5848L19.1658 17.3577C19.4887 17.6806 19.67 18.1186 19.6699 18.5753C19.6698 18.9214 19.6013 19.264 19.4684 19.5835C19.3355 19.903 19.1408 20.1931 18.8954 20.4371ZM23.7903 15.2802C23.4635 15.1984 23.1784 14.998 22.9915 14.7174L21.9765 13.1949C21.828 12.9725 21.7488 12.711 21.7488 12.4435C21.7488 12.1761 21.828 11.9146 21.9765 11.6922L23.0824 10.0336C23.2134 9.83774 23.3929 9.67855 23.604 9.57355L24.3368 9.20718C25.1 10.7269 25.5403 12.4362 25.5403 14.25C25.5403 14.7394 25.4985 15.2187 25.4376 15.6918L23.7903 15.2802Z" fill="white"/>
</g>
<defs>
<clipPath id="clip0_25_613">
<rect width="28" height="28" fill="white" transform="translate(0.25 0.25)"/>
</clipPath>
</defs>
</svg>
