<svg width="39" height="39" viewBox="0 0 39 39" fill="none" xmlns="http://www.w3.org/2000/svg">
<g clip-path="url(#clip0_26_128)">
<path d="M32.7557 30.7586H11.4973C10.464 30.7586 9.48424 30.3073 8.81111 29.5225C8.13642 28.7361 7.84232 27.6981 8.00116 26.6759L10.3272 11.7351C10.6009 9.99877 12.0698 8.7406 13.8249 8.7406H35.0834C36.1166 8.7406 37.0964 9.19197 37.7696 9.97676C38.4443 10.7631 38.7384 11.8011 38.5795 12.8234L36.2535 27.7642C35.9798 29.5005 34.5109 30.7586 32.7557 30.7586ZM13.8249 11.0997C13.2399 11.0997 12.7492 11.5196 12.6596 12.0984L10.3335 27.0392C10.28 27.3852 10.3744 27.7233 10.6024 27.9891C10.8305 28.2533 11.1466 28.3996 11.4973 28.3996H32.7557C33.3408 28.3996 33.8315 27.9797 33.9211 27.4009L36.2472 12.4601C36.3006 12.1141 36.2063 11.7759 35.9782 11.5102C35.7502 11.2459 35.4341 11.0997 35.0834 11.0997H13.8249Z" fill="white"/>
<path d="M23.4046 22.0709C22.6465 22.0709 21.8885 21.8695 21.209 21.4701L10.5429 15.1823C9.98141 14.8521 9.79425 14.1286 10.1245 13.5672C10.4564 13.0073 11.1751 12.817 11.7397 13.1504L22.4075 19.4381C22.9846 19.7778 23.6845 19.7999 24.2837 19.5026L36.6264 13.3313C37.2083 13.0403 37.916 13.2762 38.2086 13.8581C38.5011 14.4416 38.2636 15.1493 37.6801 15.4403L25.3374 21.6116C24.7272 21.9183 24.0651 22.0709 23.4046 22.0709Z" fill="white"/>
<path d="M7.561 14.2451H2.05649C1.40539 14.2451 0.876953 13.7166 0.876953 13.0655C0.876953 12.4144 1.40539 11.886 2.05649 11.886H7.561C8.21211 11.886 8.74054 12.4144 8.74054 13.0655C8.74054 13.7166 8.21211 14.2451 7.561 14.2451Z" fill="white"/>
<path d="M5.98829 20.536H2.05649C1.40539 20.536 0.876953 20.0075 0.876953 19.3564C0.876953 18.7053 1.40539 18.1769 2.05649 18.1769H5.98829C6.63939 18.1769 7.16783 18.7053 7.16783 19.3564C7.16783 20.0075 6.63939 20.536 5.98829 20.536Z" fill="white"/>
<path d="M4.41557 26.8268H2.05649C1.40539 26.8268 0.876953 26.2984 0.876953 25.6473C0.876953 24.9962 1.40539 24.4678 2.05649 24.4678H4.41557C5.06667 24.4678 5.59511 24.9962 5.59511 25.6473C5.59511 26.2984 5.06667 26.8268 4.41557 26.8268Z" fill="white"/>
</g>
<defs>
<clipPath id="clip0_26_128">
<rect width="37.7452" height="37.7452" fill="white" transform="translate(0.876953 0.876953)"/>
</clipPath>
</defs>
</svg>
