<svg width="269" height="71" viewBox="0 0 269 71" fill="none" xmlns="http://www.w3.org/2000/svg">
<path d="M83.2125 2.47913H3.15186V68.4308H83.2125V2.47913Z" fill="#3B3B3B"/>
<path d="M74.6448 37.6199L75.8222 37.0629C76.1482 36.9012 76.3294 36.488 76.2388 36.1287L73.8479 27.7747C73.703 27.2897 73.395 26.9124 72.9784 26.7327L71.7829 26.1938C71.5656 26.1039 71.4026 25.9063 71.3301 25.6548L69.5731 19.5644C69.0297 17.6781 67.1822 16.8337 65.4433 17.6781L58.361 21.0915L56.7127 15.2707C56.5678 14.7497 56.0606 14.5161 55.5716 14.7497L30.5572 26.7866C30.1406 26.9842 29.9051 27.5232 30.0319 27.9723L37.7119 54.777C37.8025 55.0824 38.0923 55.2082 38.364 55.0824L42.4032 53.1421" stroke="#FDCD60" stroke-miterlimit="10"/>
<path d="M56.459 46.369L68.1782 40.7278" stroke="#FDCD60" stroke-miterlimit="10"/>
<path d="M36.1904 48.1297L61.7301 35.8413C62.1105 35.6616 62.3279 35.1765 62.2192 34.7454L58.3429 20.9119" stroke="#FDCD60" stroke-miterlimit="10"/>
<path d="M61.9111 19.6902L64.3202 28.116C64.4289 28.4933 64.7911 28.655 65.1534 28.4933L71.3119 25.529" stroke="#FDCD60" stroke-miterlimit="10"/>
<path d="M61.9839 33.9548C63.5416 39.3984 64.4473 42.5244 64.4473 42.5244" stroke="#FDCD60" stroke-miterlimit="10"/>
<path d="M48.582 52.6706C49.3714 50.6969 48.6619 48.5661 46.9975 47.9113C45.3331 47.2565 43.344 48.3256 42.5547 50.2992C41.7653 52.2729 42.4748 54.4036 44.1392 55.0585C45.8036 55.7133 47.7927 54.6442 48.582 52.6706Z" stroke="#FDCD60" stroke-width="2" stroke-miterlimit="10"/>
<path d="M47.0163 52.0544C47.3962 51.1045 47.0559 50.0794 46.2563 49.7648C45.4566 49.4502 44.5004 49.9652 44.1205 50.9151C43.7406 51.8651 44.0809 52.8902 44.8805 53.2048C45.6802 53.5194 46.6364 53.0044 47.0163 52.0544Z" fill="#FDCD60"/>
<path d="M55.9854 49.1187C56.7747 47.1451 56.0653 45.0143 54.4008 44.3594C52.7364 43.7046 50.7473 44.7737 49.958 46.7473C49.1687 48.721 49.8781 50.8518 51.5425 51.5066C53.2069 52.1614 55.1961 51.0923 55.9854 49.1187Z" stroke="#FDCD60" stroke-width="2" stroke-miterlimit="10"/>
<path d="M54.4196 48.5026C54.7995 47.5526 54.4593 46.5275 53.6596 46.2129C52.8599 45.8983 51.9037 46.4133 51.5238 47.3633C51.1439 48.3132 51.4842 49.3383 52.2839 49.6529C53.0835 49.9675 54.0397 49.4525 54.4196 48.5026Z" fill="#FDCD60"/>
<path d="M74.3364 40.2741C75.1257 38.3004 74.4163 36.1696 72.7519 35.5148C71.0875 34.86 69.0984 35.9291 68.3091 37.9027C67.5197 39.8764 68.2292 42.0072 69.8936 42.662C71.558 43.3168 73.5471 42.2477 74.3364 40.2741Z" stroke="#FDCD60" stroke-width="2" stroke-miterlimit="10"/>
<path d="M72.7707 39.6582C73.1506 38.7083 72.8103 37.6832 72.0107 37.3686C71.211 37.0539 70.2548 37.569 69.8749 38.5189C69.495 39.4688 69.8353 40.4939 70.6349 40.8085C71.4346 41.1232 72.3908 40.6081 72.7707 39.6582Z" fill="#FDCD60"/>
<path d="M40.5737 32.5354C40.5737 32.5354 41.9503 35.2482 44.8485 33.8469C48.5254 32.0683 51.6953 30.5413 51.6953 30.5413" stroke="#FDCD60" stroke-miterlimit="10" stroke-linecap="round"/>
<path d="M45.5007 33.5416C45.5007 33.5416 46.823 36.4879 49.8479 35.0327C51.2608 34.35 53.4344 33.29 54.6298 32.6972C55.1189 32.4636 55.3906 31.8348 55.2457 31.2959L53.9053 26.6068C53.3438 24.6306 51.4057 23.7503 49.5762 24.6306L35.7739 31.2779C35.7739 31.2779 37.2049 33.847 41.0449 32.1043C44.903 30.3616 49.5219 28.0261 49.5219 28.0261" stroke="#FDCD60" stroke-miterlimit="10" stroke-linecap="round"/>
<path d="M34.5422 49.4952C34.5422 49.6748 34.5241 49.8006 34.506 49.9443C34.4878 50.088 34.4516 50.2317 34.4335 50.3755C34.3792 50.6449 34.2886 50.9324 34.198 51.2019C34.0169 51.7409 33.7633 52.2439 33.4554 52.729C32.8576 53.6991 32.0426 54.5255 31.1188 55.1902C30.6659 55.5316 30.1769 55.819 29.6878 56.0885C29.1807 56.358 28.6916 56.5736 28.2025 56.7892C27.2425 57.2204 26.3188 57.7054 25.4131 58.2264L22.9497 59.6098L24.4893 57.2563L26.518 54.6872L27.0433 55.2262C26.6629 55.4418 26.3007 55.6394 25.9022 55.819C25.5218 55.9987 25.1414 56.1604 24.7429 56.3041C23.964 56.6095 23.1489 56.861 22.3339 57.0766C20.7037 57.4898 19.001 57.7234 17.2984 57.7593C15.5957 57.7773 13.8568 57.5976 12.1904 57.1844C10.5059 56.7712 8.8757 56.1604 7.33607 55.3699L5.01758 54.0404L7.49909 53.1781C8.38664 52.8727 9.29231 52.5313 10.1799 52.19C11.0674 51.8486 11.955 51.4714 12.8244 51.0941C13.6938 50.7168 14.5633 50.3216 15.4146 49.8904C16.2659 49.4772 17.0991 49.028 17.9323 48.5609L18.5301 48.2016C18.7293 48.0759 18.9286 47.9501 19.1097 47.8244C19.4901 47.5728 19.8704 47.2854 20.2327 46.9979C20.9572 46.4051 21.6455 45.7583 22.352 45.0936C23.0403 44.4289 23.7467 43.7282 24.5437 43.0994C24.9422 42.794 25.3588 42.4886 25.8297 42.255C26.3007 42.0215 26.8078 41.8418 27.3331 41.7699V42.5245C26.355 42.3808 25.3225 42.3089 24.3263 42.291C23.312 42.273 22.3157 42.291 21.3195 42.3808C20.3233 42.4706 19.3452 42.6323 18.4033 42.9018C17.4614 43.1533 16.5557 43.5306 15.7769 44.0516L13.404 45.5787L14.8893 43.1713C15.3059 42.5425 15.7225 41.9496 16.1572 41.3747C16.5919 40.7818 17.0448 40.2069 17.5338 39.65C18.0048 39.0931 18.512 38.5361 19.0554 38.0151C19.5987 37.4941 20.1784 36.9911 20.8486 36.5779L21.084 37.6019C20.758 37.548 20.4682 37.4941 20.1603 37.4402C19.8523 37.3863 19.5444 37.3145 19.2365 37.2426C18.9286 37.1708 18.6206 37.0809 18.3308 36.9731C18.0229 36.8653 17.715 36.7576 17.407 36.5599L16.4652 36.021L17.5882 35.8413C18.675 35.6616 19.8161 35.3922 20.7218 34.9071C20.9572 34.7813 21.1565 34.6556 21.3376 34.4939L21.6455 34.2244C21.7542 34.1166 21.881 34.0268 21.9897 33.919C22.4425 33.5237 22.9497 33.1644 23.5112 32.859C24.0546 32.5536 24.6705 32.3021 25.3044 32.1584C25.9565 32.0146 26.6267 31.9967 27.2788 32.1224C27.9308 32.2482 28.5286 32.4997 29.072 32.8051C29.6154 33.1285 30.0863 33.5058 30.521 33.937C30.6659 34.0807 30.6841 34.3322 30.521 34.4939C30.3942 34.6196 30.1769 34.6376 30.032 34.5478C29.0901 33.937 28.0939 33.4339 27.0795 33.3261C26.8259 33.3082 26.5723 33.2902 26.3369 33.3082C26.0833 33.3261 25.8478 33.3621 25.5942 33.4339C25.1052 33.5597 24.6161 33.7573 24.1633 34.0268C23.6923 34.2783 23.2576 34.6017 22.8048 34.9251C22.6961 35.0149 22.5874 35.0868 22.4788 35.1766L22.3157 35.3023L22.1165 35.464C21.8448 35.6616 21.5369 35.8233 21.2471 35.9671C20.9572 36.1108 20.6493 36.2006 20.3414 36.2904C20.0335 36.3803 19.7437 36.4342 19.4357 36.4881C18.8199 36.5779 18.2403 36.6318 17.6063 36.6138L17.7874 35.8952C18.0048 36.003 18.2765 36.0928 18.5663 36.1647C18.838 36.2365 19.1278 36.2904 19.4176 36.3264C19.7074 36.3803 19.9972 36.4162 20.3052 36.4342C20.595 36.4701 20.9029 36.4881 21.1927 36.506L22.8772 36.5959L21.4282 37.5121C20.8667 37.8535 20.3595 38.3206 19.8523 38.8236C19.3633 39.3266 18.8923 39.8476 18.4395 40.4046C17.9867 40.9615 17.5519 41.5184 17.1353 42.0933C16.7187 42.6682 16.3202 43.2611 15.9399 43.854L15.0704 42.9916C16.0304 42.4167 17.0629 42.0574 18.0953 41.8059C19.1278 41.5544 20.1784 41.4286 21.2289 41.3747C22.2795 41.3208 23.312 41.3388 24.3625 41.4106C25.395 41.4825 26.4274 41.5903 27.4599 41.7879L29.398 42.1293L27.4599 42.5425C26.6086 42.7221 25.8478 43.2252 25.1595 43.854C24.4712 44.4828 23.8554 45.2014 23.2033 45.92C22.5512 46.6386 21.881 47.3572 21.1565 48.0399C20.7942 48.3813 20.4138 48.7047 20.0154 49.028C19.8161 49.1897 19.6169 49.3335 19.4176 49.4772L18.8018 49.9084C17.9867 50.4653 17.1353 51.0043 16.284 51.4893C15.4327 51.9924 14.5633 52.4595 13.6938 52.9086C12.8244 53.3578 11.9368 53.8069 11.0674 54.2201C10.1799 54.6513 9.29231 55.0465 8.36853 55.4418L8.53155 53.25C9.8357 54.0764 11.2485 54.7411 12.7338 55.2441C14.2191 55.7292 15.7587 56.0346 17.3346 56.1604C18.9104 56.2682 20.5044 56.1963 22.0803 55.9268C22.8591 55.8011 23.6561 55.6214 24.4169 55.3879C24.7973 55.2801 25.1776 55.1543 25.558 55.0106C25.9384 54.8669 26.3188 54.7231 26.6448 54.5615L27.9852 53.5554L27.1701 55.1184L25.6486 58.0108L24.7248 57.0407C25.6667 56.5017 26.6629 56.0167 27.6773 55.6035C28.1844 55.3879 28.6735 55.2082 29.1263 54.9926C29.5792 54.777 30.032 54.5435 30.4486 54.256C31.2999 53.6991 32.0426 53.0164 32.6222 52.208C32.7671 52.0103 32.8939 51.7948 33.0207 51.5792C33.1475 51.3636 33.2561 51.13 33.3467 50.9144C33.4373 50.6809 33.5278 50.4473 33.6003 50.2138C33.6365 50.088 33.6727 49.9802 33.6909 49.8545C33.709 49.7467 33.7452 49.6029 33.7452 49.5131V49.4952C33.7633 49.2796 33.9626 49.1358 34.1799 49.1538C34.3973 49.1179 34.5603 49.2975 34.5422 49.4952Z" fill="#FDCD60"/>
<path d="M32.731 35.8234L36.5529 33.9729" stroke="#FDCD60" stroke-miterlimit="10" stroke-linecap="round"/>
<path d="M29.1445 37.548L30.503 36.9012" stroke="#FDCD60" stroke-miterlimit="10" stroke-linecap="round"/>
<path d="M36.915 37.6199L38.2735 36.9731" stroke="#FDCD60" stroke-miterlimit="10" stroke-linecap="round"/>
<path d="M28.583 45.4528L29.9415 44.806" stroke="#FDCD60" stroke-miterlimit="10" stroke-linecap="round"/>
<path d="M29.3438 41.2667C37.6034 37.2963 35.2487 38.4282 35.2487 38.4282" stroke="#FDCD60" stroke-miterlimit="10" stroke-linecap="round"/>
<path d="M31.7163 43.9438C39.9759 39.9735 37.6212 41.1053 37.6212 41.1053" stroke="#FDCD60" stroke-miterlimit="10" stroke-linecap="round"/>
<path d="M109.877 46.0205C109.266 46.4684 108.508 46.811 107.605 47.0481C106.728 47.2589 105.799 47.3643 104.816 47.3643C102.265 47.3643 100.286 46.7188 98.8782 45.4276C97.4967 44.1365 96.806 42.2393 96.806 39.7361V31.0013H93.4985V26.2583H96.806V21.0807H103.022V26.2583H108.362V31.0013H103.022V39.6571C103.022 40.553 103.248 41.2512 103.7 41.7519C104.178 42.2262 104.842 42.4633 105.692 42.4633C106.675 42.4633 107.512 42.1998 108.203 41.6728L109.877 46.0205Z" fill="white"/>
<path d="M133.705 36.4951C133.705 36.5742 133.665 37.1275 133.586 38.1552H117.367C117.659 39.4726 118.35 40.5134 119.439 41.2776C120.528 42.0417 121.883 42.4238 123.504 42.4238C124.619 42.4238 125.602 42.2657 126.453 41.9495C127.329 41.6069 128.14 41.08 128.883 40.3685L132.191 43.9257C130.172 46.2181 127.223 47.3643 123.344 47.3643C120.927 47.3643 118.788 46.9032 116.929 45.981C115.069 45.0324 113.634 43.7281 112.625 42.0681C111.615 40.408 111.111 38.524 111.111 36.4161C111.111 34.3345 111.602 32.4637 112.585 30.8036C113.595 29.1173 114.963 27.813 116.69 26.8907C118.443 25.9422 120.395 25.4679 122.547 25.4679C124.646 25.4679 126.546 25.9158 128.246 26.8117C129.946 27.7076 131.274 28.9987 132.231 30.6851C133.214 32.3451 133.705 34.2818 133.705 36.4951ZM122.587 30.1317C121.179 30.1317 119.997 30.527 119.041 31.3175C118.084 32.1079 117.5 33.1883 117.287 34.5584H127.847C127.635 33.2146 127.05 32.1475 126.094 31.357C125.138 30.5401 123.969 30.1317 122.587 30.1317Z" fill="white"/>
<path d="M165.3 25.4679C167.983 25.4679 170.108 26.2583 171.676 27.8393C173.27 29.3939 174.067 31.739 174.067 34.8746V47.0481H167.85V35.8232C167.85 34.1369 167.492 32.8853 166.774 32.0684C166.084 31.2252 165.087 30.8036 163.786 30.8036C162.324 30.8036 161.169 31.2779 160.319 32.2265C159.469 33.1487 159.044 34.5321 159.044 36.3766V47.0481H152.827V35.8232C152.827 32.4768 151.472 30.8036 148.762 30.8036C147.328 30.8036 146.186 31.2779 145.335 32.2265C144.485 33.1487 144.06 34.5321 144.06 36.3766V47.0481H137.844V25.7841H143.781V28.2346C144.578 27.3387 145.548 26.6536 146.69 26.1793C147.859 25.705 149.134 25.4679 150.516 25.4679C152.03 25.4679 153.398 25.7709 154.62 26.3769C155.842 26.9566 156.825 27.813 157.569 28.946C158.446 27.8393 159.548 26.983 160.877 26.3769C162.231 25.7709 163.706 25.4679 165.3 25.4679Z" fill="white"/>
<path d="M192.311 25.4679C194.303 25.4679 196.11 25.929 197.73 26.8512C199.377 27.7471 200.666 29.025 201.596 30.6851C202.525 32.3187 202.99 34.2291 202.99 36.4161C202.99 38.6031 202.525 40.5266 201.596 42.1866C200.666 43.8203 199.377 45.0983 197.73 46.0205C196.11 46.9164 194.303 47.3643 192.311 47.3643C189.574 47.3643 187.423 46.508 185.855 44.7952V54.7158H179.639V25.7841H185.576V28.2346C187.117 26.3901 189.362 25.4679 192.311 25.4679ZM191.235 42.3052C192.829 42.3052 194.131 41.7782 195.14 40.7242C196.176 39.6439 196.694 38.2079 196.694 36.4161C196.694 34.6243 196.176 33.2014 195.14 32.1475C194.131 31.0671 192.829 30.527 191.235 30.527C189.641 30.527 188.326 31.0671 187.29 32.1475C186.28 33.2014 185.776 34.6243 185.776 36.4161C185.776 38.2079 186.28 39.6439 187.29 40.7242C188.326 41.7782 189.641 42.3052 191.235 42.3052Z" fill="white"/>
<path d="M207.152 25.7841H213.368V47.0481H207.152V25.7841ZM210.26 22.8197C209.118 22.8197 208.188 22.4904 207.471 21.8316C206.753 21.1729 206.395 20.3561 206.395 19.3811C206.395 18.4062 206.753 17.5894 207.471 16.9306C208.188 16.2719 209.118 15.9425 210.26 15.9425C211.402 15.9425 212.332 16.2587 213.049 16.8911C213.767 17.5235 214.125 18.314 214.125 19.2625C214.125 20.2902 213.767 21.1465 213.049 21.8316C212.332 22.4904 211.402 22.8197 210.26 22.8197Z" fill="white"/>
<path d="M225.075 28.5903C225.819 27.5626 226.815 26.7853 228.064 26.2583C229.339 25.7314 230.8 25.4679 232.447 25.4679V31.1594C231.757 31.1067 231.292 31.0803 231.053 31.0803C229.273 31.0803 227.878 31.5809 226.868 32.5822C225.859 33.5572 225.354 35.0327 225.354 37.009V47.0481H219.138V25.7841H225.075V28.5903Z" fill="white"/>
<path d="M256.95 36.4951C256.95 36.5742 256.91 37.1275 256.83 38.1552H240.611C240.904 39.4726 241.594 40.5134 242.684 41.2776C243.773 42.0417 245.128 42.4238 246.748 42.4238C247.864 42.4238 248.847 42.2657 249.697 41.9495C250.574 41.6069 251.384 41.08 252.128 40.3685L255.435 43.9257C253.416 46.2181 250.467 47.3643 246.589 47.3643C244.171 47.3643 242.033 46.9032 240.173 45.981C238.313 45.0324 236.879 43.7281 235.869 42.0681C234.86 40.408 234.355 38.524 234.355 36.4161C234.355 34.3345 234.847 32.4637 235.829 30.8036C236.839 29.1173 238.207 27.813 239.934 26.8907C241.687 25.9422 243.64 25.4679 245.792 25.4679C247.891 25.4679 249.79 25.9158 251.49 26.8117C253.19 27.7076 254.519 28.9987 255.475 30.6851C256.458 32.3451 256.95 34.2818 256.95 36.4951ZM245.832 30.1317C244.424 30.1317 243.241 30.527 242.285 31.3175C241.329 32.1079 240.744 33.1883 240.532 34.5584H251.092C250.879 33.2146 250.295 32.1475 249.338 31.357C248.382 30.5401 247.213 30.1317 245.832 30.1317Z" fill="white"/>
<path d="M14.0563 20.5347C14.002 20.5167 14.002 20.4269 14.0744 20.4089C14.5273 20.2832 15.6503 19.9418 16.3205 19.2412C17.0269 18.5225 17.3348 17.6243 17.4797 17.1751C17.4978 17.1033 17.5884 17.1033 17.6065 17.1751C17.7152 17.6422 18.005 18.5585 18.7295 19.2232C19.5084 19.9418 20.4684 20.2832 20.885 20.391C20.9393 20.4089 20.9575 20.4987 20.885 20.5167C20.4322 20.6964 19.3997 21.0377 18.6752 21.8102C18.0956 22.439 17.7514 23.4451 17.6246 23.9122C17.6065 23.9841 17.5159 23.9841 17.4978 23.9122C17.371 23.4451 17.0088 22.4929 16.2842 21.8462C15.4329 21.1096 14.4729 20.7143 14.0563 20.5347Z" fill="#FDCD60"/>
<path d="M9.02067 13.2227C8.96633 13.2047 8.96633 13.1149 9.03878 13.0969C9.49161 12.9711 10.6146 12.6298 11.2848 11.9291C11.9912 11.2105 12.2992 10.3122 12.4441 9.8631C12.4622 9.79124 12.5528 9.79124 12.5709 9.8631C12.6795 10.3302 12.9694 11.2465 13.6939 11.9112C14.4728 12.6298 15.4328 12.9711 15.8494 13.0789C15.9037 13.0969 15.9218 13.1867 15.8494 13.2047C15.3965 13.3844 14.3641 13.7257 13.6395 14.4982C13.0599 15.127 12.7158 16.1331 12.589 16.6002C12.5709 16.6721 12.4803 16.6721 12.4622 16.6002C12.2992 16.1511 11.955 15.1989 11.2305 14.5521C10.3973 13.8155 9.43727 13.4023 9.02067 13.2227Z" fill="#FDCD60"/>
<path d="M22.2615 15.8277C22.2253 15.8097 22.2253 15.7558 22.2615 15.7379C22.5695 15.648 23.3302 15.4145 23.8012 14.9474C24.2721 14.4623 24.5076 13.8515 24.5982 13.5281C24.6163 13.4742 24.6706 13.4742 24.6887 13.5281C24.7612 13.8515 24.9604 14.4803 25.4495 14.9294C25.9748 15.4324 26.645 15.648 26.9167 15.7379C26.9529 15.7558 26.971 15.8097 26.9167 15.8277C26.6087 15.9534 25.9023 16.187 25.3951 16.708C24.9966 17.1392 24.7612 17.8219 24.6706 18.1632C24.6525 18.2171 24.5982 18.2171 24.58 18.1632C24.4895 17.8398 24.254 17.1931 23.7468 16.7439C23.2034 16.2229 22.5332 15.9355 22.2615 15.8277Z" fill="#FDCD60"/>
<path d="M21.7362 25.7627C21.7 25.7447 21.7181 25.7088 21.7362 25.6908C21.9717 25.6369 22.5513 25.4393 22.9136 25.08C23.2759 24.7027 23.457 24.2356 23.5113 24.002C23.5295 23.9661 23.5657 23.9661 23.5838 24.002C23.6381 24.2536 23.8012 24.7207 24.1634 25.08C24.5619 25.4573 25.0691 25.6369 25.2864 25.6908C25.3227 25.7088 25.3227 25.7447 25.2864 25.7627C25.051 25.8525 24.5076 26.0322 24.1272 26.4454C23.8193 26.7687 23.6381 27.3077 23.5657 27.5592C23.5476 27.5952 23.5113 27.5952 23.4932 27.5592C23.4208 27.3077 23.2396 26.8047 22.8593 26.4813C22.4608 26.0681 21.9536 25.8525 21.7362 25.7627Z" fill="#FDCD60"/>
<path d="M17.6606 10.4021C17.6243 10.3841 17.6425 10.3482 17.6606 10.3302C17.896 10.2763 18.4757 10.0787 18.8379 9.71939C19.2002 9.34211 19.3813 8.875 19.4357 8.64145C19.4538 8.60552 19.49 8.60552 19.5081 8.64145C19.5625 8.89297 19.7255 9.36007 20.0877 9.71939C20.4862 10.0967 20.9934 10.2763 21.2108 10.3302C21.247 10.3482 21.247 10.3841 21.2108 10.4021C20.9753 10.4919 20.4319 10.6716 20.0515 11.0848C19.7436 11.4081 19.5625 11.9471 19.49 12.1986C19.4719 12.2346 19.4357 12.2346 19.4175 12.1986C19.3451 11.9471 19.164 11.4441 18.7836 11.1207C18.3851 10.7075 17.8779 10.4919 17.6606 10.4021Z" fill="#FDCD60"/>
<path d="M10.2884 24.6667C10.2522 24.6488 10.2522 24.5949 10.2884 24.5949C10.5782 24.523 11.2665 24.3074 11.6831 23.8763C12.1178 23.4271 12.3171 22.8702 12.4077 22.5827C12.4258 22.5468 12.4801 22.5468 12.4982 22.5827C12.5707 22.8702 12.7518 23.4451 13.2046 23.8583C13.6937 24.3074 14.2914 24.5051 14.545 24.5769C14.5812 24.5949 14.5812 24.6488 14.545 24.6488C14.2552 24.7566 13.6212 24.9722 13.1684 25.4572C12.8061 25.8345 12.5888 26.4813 12.5163 26.7687C12.4982 26.8047 12.4439 26.8047 12.4439 26.7687C12.3714 26.4813 12.1541 25.8884 11.6831 25.4752C11.1397 25.044 10.542 24.7925 10.2884 24.6667Z" fill="#FDCD60"/>
</svg>
