<svg width="290" height="77" viewBox="0 0 290 77" fill="none" xmlns="http://www.w3.org/2000/svg">
<g clip-path="url(#clip0_25_459)">
<path d="M290 -0.272705H-0.546753V77.0001H290V-0.272705Z" fill="white"/>
<path d="M89.7084 2.68872H3.39771V74.2138H89.7084V2.68872Z" fill="#3B3B3B"/>
<path d="M80.472 40.7991L81.7413 40.1951C82.0928 40.0198 82.288 39.5716 82.1904 39.1819L79.6128 30.122C79.4566 29.5959 79.1246 29.1868 78.6755 28.9919L77.3867 28.4074C77.1523 28.31 76.9766 28.0957 76.8985 27.8229L75.0043 21.2179C74.4185 19.1721 72.4267 18.2563 70.5521 19.1721L62.9169 22.874L61.14 16.5613C60.9837 15.9962 60.437 15.7429 59.9097 15.9962L32.9425 29.0504C32.4934 29.2647 32.2395 29.8492 32.3762 30.3363L40.6558 59.4061C40.7534 59.7374 41.0659 59.8737 41.3588 59.7374L45.7134 57.6331" stroke="#FDCD60" stroke-miterlimit="10"/>
<path d="M60.8666 50.2876L73.5007 44.1697" stroke="#FDCD60" stroke-miterlimit="10"/>
<path d="M39.0155 52.1972L66.549 38.8702C66.9591 38.6754 67.1934 38.1493 67.0762 37.6817L62.8974 22.6792" stroke="#FDCD60" stroke-miterlimit="10"/>
<path d="M66.7443 21.3542L69.3414 30.4921C69.4586 30.9013 69.8491 31.0767 70.2397 30.9013L76.8789 27.6865" stroke="#FDCD60" stroke-miterlimit="10"/>
<path d="M66.8224 36.8245C68.5017 42.7281 69.4781 46.1182 69.4781 46.1182" stroke="#FDCD60" stroke-miterlimit="10"/>
<path d="M52.3747 57.1217C53.2257 54.9813 52.4609 52.6704 50.6665 51.9603C48.8722 51.2501 46.7277 52.4095 45.8768 54.55C45.0259 56.6904 45.7907 59.0012 47.585 59.7114C49.3794 60.4216 51.5238 59.2621 52.3747 57.1217Z" stroke="#FDCD60" stroke-width="2" stroke-miterlimit="10"/>
<path d="M50.6867 56.4535C51.0963 55.4233 50.7294 54.3116 49.8673 53.9704C49.0053 53.6292 47.9744 54.1877 47.5648 55.2179C47.1553 56.2481 47.5221 57.3598 48.3842 57.701C49.2463 58.0422 50.2772 57.4837 50.6867 56.4535Z" fill="#FDCD60"/>
<path d="M60.3558 53.2697C61.2067 51.1292 60.4419 48.8184 58.6476 48.1082C56.8532 47.398 54.7088 48.5575 53.8579 50.6979C53.007 52.8383 53.7718 55.1492 55.5661 55.8594C57.3605 56.5695 59.5049 55.4101 60.3558 53.2697Z" stroke="#FDCD60" stroke-width="2" stroke-miterlimit="10"/>
<path d="M58.6678 52.6014C59.0774 51.5712 58.7105 50.4595 57.8484 50.1183C56.9863 49.7771 55.9554 50.3356 55.5459 51.3659C55.1363 52.3961 55.5032 53.5078 56.3653 53.849C57.2274 54.1902 58.2582 53.6316 58.6678 52.6014Z" fill="#FDCD60"/>
<path d="M80.1397 43.6776C80.9907 41.5372 80.2259 39.2263 78.4315 38.5161C76.6372 37.806 74.4927 38.9654 73.6418 41.1059C72.7909 43.2463 73.5557 45.5572 75.35 46.2673C77.1444 46.9775 79.2888 45.818 80.1397 43.6776Z" stroke="#FDCD60" stroke-width="2" stroke-miterlimit="10"/>
<path d="M78.4517 43.0097C78.8613 41.9794 78.4944 40.8677 77.6323 40.5265C76.7703 40.1853 75.7394 40.7439 75.3298 41.7741C74.9203 42.8043 75.2871 43.916 76.1492 44.2572C77.0113 44.5984 78.0422 44.0399 78.4517 43.0097Z" fill="#FDCD60"/>
<path d="M43.7411 35.285C43.7411 35.285 45.2252 38.2271 48.3495 36.7073C52.3136 34.7784 55.7309 33.1223 55.7309 33.1223" stroke="#FDCD60" stroke-miterlimit="10" stroke-linecap="round"/>
<path d="M49.0526 36.3762C49.0526 36.3762 50.4781 39.5715 53.7391 37.9933C55.2622 37.2529 57.6055 36.1034 58.8943 35.4604C59.4216 35.2071 59.7145 34.5252 59.5583 33.9407L58.1132 28.8554C57.5079 26.7122 55.4185 25.7575 53.4462 26.7122L38.5664 33.9212C38.5664 33.9212 40.1091 36.7074 44.2489 34.8175C48.4082 32.9275 53.3876 30.3946 53.3876 30.3946" stroke="#FDCD60" stroke-miterlimit="10" stroke-linecap="round"/>
<path d="M37.2386 53.6779C37.2386 53.8727 37.219 54.0091 37.1995 54.165C37.18 54.3209 37.1409 54.4767 37.1214 54.6326C37.0628 54.9249 36.9652 55.2366 36.8675 55.5289C36.6723 56.1134 36.3989 56.6589 36.0669 57.185C35.4225 58.2371 34.5438 59.1334 33.5479 59.8543C33.0597 60.2245 32.5325 60.5362 32.0052 60.8285C31.4585 61.1207 30.9312 61.3545 30.404 61.5883C29.3691 62.0559 28.3732 62.582 27.3968 63.147L24.7411 64.6473L26.4009 62.0949L28.588 59.3087L29.1543 59.8932C28.7442 60.127 28.3536 60.3414 27.924 60.5362C27.514 60.731 27.1039 60.9064 26.6743 61.0623C25.8346 61.3935 24.9559 61.6663 24.0772 61.9001C22.3197 62.3482 20.4841 62.6015 18.6486 62.6404C16.813 62.6599 14.9384 62.4651 13.1419 62.017C11.3258 61.5688 9.56837 60.9064 7.90855 60.0491L5.40906 58.6073L8.0843 57.6721C9.04114 57.3409 10.0175 56.9707 10.9743 56.6005C11.9312 56.2303 12.888 55.8211 13.8253 55.412C14.7626 55.0028 15.6999 54.5742 16.6177 54.1065C17.5355 53.6584 18.4338 53.1713 19.332 52.6647L19.9764 52.2751C20.1912 52.1387 20.406 52.0023 20.6013 51.8659C21.0114 51.5931 21.4214 51.2814 21.812 50.9696C22.5931 50.3267 23.3351 49.6253 24.0967 48.9044C24.8387 48.1835 25.6003 47.4236 26.4595 46.7417C26.8891 46.4104 27.3382 46.0792 27.8459 45.8259C28.3536 45.5726 28.9004 45.3778 29.4667 45.2999V46.1182C28.4122 45.9623 27.2992 45.8844 26.2252 45.8649C25.1316 45.8454 24.0576 45.8649 22.9836 45.9623C21.9096 46.0597 20.8552 46.2351 19.8397 46.5273C18.8243 46.8001 17.8479 47.2093 17.0083 47.7743L14.4502 49.4304L16.0514 46.8196C16.5006 46.1377 16.9497 45.4947 17.4183 44.8712C17.887 44.2282 18.3752 43.6048 18.9024 43.0008C19.4101 42.3968 19.9569 41.7928 20.5427 41.2277C21.1285 40.6627 21.7534 40.1172 22.4759 39.669L22.7298 40.7796C22.3783 40.7212 22.0658 40.6627 21.7339 40.6043C21.4019 40.5458 21.07 40.4679 20.738 40.3899C20.406 40.312 20.0741 40.2146 19.7616 40.0977C19.4297 39.9808 19.0977 39.8639 18.7657 39.6496L17.7503 39.065L18.961 38.8702C20.1326 38.6754 21.3629 38.3831 22.3392 37.857C22.5931 37.7207 22.8079 37.5843 23.0032 37.4089L23.3351 37.1167C23.4523 36.9998 23.589 36.9023 23.7061 36.7854C24.1943 36.3568 24.7411 35.9671 25.3464 35.6359C25.9323 35.3047 26.5962 35.0319 27.2796 34.876C27.9826 34.7202 28.7051 34.7007 29.4081 34.8371C30.1111 34.9734 30.7555 35.2462 31.3413 35.5774C31.9271 35.9281 32.4348 36.3373 32.9035 36.8049C33.0597 36.9608 33.0792 37.2336 32.9035 37.4089C32.7668 37.5453 32.5325 37.5648 32.3763 37.4674C31.3608 36.8049 30.2868 36.2594 29.1933 36.1425C28.9199 36.123 28.6465 36.1035 28.3927 36.123C28.1193 36.1425 27.8655 36.1814 27.5921 36.2594C27.0648 36.3958 26.5376 36.6101 26.0494 36.9023C25.5417 37.1751 25.073 37.5258 24.5849 37.8765C24.4677 37.9739 24.3505 38.0519 24.2334 38.1493L24.0576 38.2857L23.8428 38.461C23.5499 38.6754 23.218 38.8507 22.9055 39.0066C22.5931 39.1625 22.2611 39.2599 21.9292 39.3573C21.5972 39.4547 21.2848 39.5132 20.9528 39.5716C20.2889 39.669 19.664 39.7275 18.9805 39.708L19.1758 38.9287C19.4101 39.0456 19.703 39.143 20.0155 39.2209C20.3084 39.2988 20.6208 39.3573 20.9333 39.3963C21.2457 39.4547 21.5581 39.4937 21.8901 39.5132C22.2025 39.5521 22.5345 39.5716 22.8469 39.5911L24.663 39.6885L23.1008 40.6822C22.4954 41.0524 21.9487 41.559 21.4019 42.1045C20.8747 42.6501 20.367 43.2151 19.8788 43.8191C19.3906 44.4231 18.9219 45.0271 18.4728 45.6506C18.0237 46.274 17.5941 46.917 17.184 47.56L16.2467 46.6248C17.2817 46.0013 18.3947 45.6116 19.5078 45.3388C20.6208 45.0661 21.7534 44.9297 22.886 44.8712C24.0186 44.8128 25.1316 44.8322 26.2642 44.9102C27.3773 44.9881 28.4903 45.105 29.6034 45.3193L31.6928 45.6895L29.6034 46.1377C28.6856 46.3325 27.8655 46.878 27.1234 47.56C26.3814 48.2419 25.7175 49.0213 25.0145 49.8006C24.3115 50.58 23.589 51.3593 22.8079 52.0997C22.4173 52.4699 22.0073 52.8206 21.5777 53.1713C21.3629 53.3467 21.1481 53.5025 20.9333 53.6584L20.2693 54.126C19.3906 54.73 18.4728 55.3145 17.555 55.8406C16.6373 56.3861 15.6999 56.8927 14.7626 57.3798C13.8253 57.8669 12.8685 58.354 11.9312 58.8021C10.9743 59.2697 10.0175 59.6984 9.02161 60.127L9.19735 57.75C10.6033 58.6463 12.1264 59.3672 13.7277 59.9127C15.3289 60.4388 16.9887 60.77 18.6876 60.9064C20.3865 61.0233 22.1049 60.9454 23.8038 60.6531C24.6434 60.5167 25.5026 60.3219 26.3228 60.0686C26.7329 59.9517 27.1429 59.8153 27.553 59.6594C27.9631 59.5036 28.3732 59.3477 28.7247 59.1723L30.1697 58.0812L29.2909 59.7763L27.6507 62.9132L26.6548 61.8611C27.6702 61.2766 28.7442 60.7505 29.8377 60.3024C30.3845 60.0686 30.9117 59.8737 31.3999 59.6399C31.8881 59.4061 32.3763 59.1528 32.8254 58.8411C33.7432 58.2371 34.5438 57.4967 35.1687 56.62C35.3249 56.4056 35.4616 56.1718 35.5983 55.938C35.735 55.7042 35.8521 55.4509 35.9498 55.2171C36.0474 54.9638 36.145 54.7105 36.2231 54.4572C36.2622 54.3209 36.3012 54.204 36.3208 54.0676C36.3403 53.9507 36.3794 53.7948 36.3794 53.6974V53.6779C36.3989 53.4441 36.6137 53.2882 36.848 53.3077C37.0823 53.2687 37.2581 53.4636 37.2386 53.6779Z" fill="#FDCD60"/>
<path d="M35.2859 38.8508L39.4062 36.844" stroke="#FDCD60" stroke-miterlimit="10" stroke-linecap="round"/>
<path d="M31.4194 40.7212L32.884 40.0198" stroke="#FDCD60" stroke-miterlimit="10" stroke-linecap="round"/>
<path d="M39.7966 40.7991L41.2612 40.0977" stroke="#FDCD60" stroke-miterlimit="10" stroke-linecap="round"/>
<path d="M30.8141 49.2939L32.2786 48.5925" stroke="#FDCD60" stroke-miterlimit="10" stroke-linecap="round"/>
<path d="M31.6343 44.7542C40.5387 40.4483 38.0002 41.6758 38.0002 41.6758" stroke="#FDCD60" stroke-miterlimit="10" stroke-linecap="round"/>
<path d="M34.1923 47.6575C43.0967 43.3516 40.5582 44.5791 40.5582 44.5791" stroke="#FDCD60" stroke-miterlimit="10" stroke-linecap="round"/>
<path d="M118.454 49.9096C117.795 50.3954 116.979 50.7669 116.005 51.0241C115.06 51.2527 114.058 51.367 112.998 51.367C110.249 51.367 108.115 50.6669 106.597 49.2666C105.108 47.8664 104.363 45.8089 104.363 43.0941V33.6211H100.797V28.4774H104.363V22.8622H111.065V28.4774H116.821V33.6211H111.065V43.0084C111.065 43.98 111.308 44.7373 111.795 45.2802C112.311 45.7946 113.027 46.0518 113.943 46.0518C115.003 46.0518 115.905 45.766 116.65 45.1945L118.454 49.9096Z" fill="#3B3B3B"/>
<path d="M144.143 39.5793C144.143 39.665 144.1 40.2651 144.014 41.3796H126.529C126.844 42.8084 127.589 43.9371 128.763 44.7659C129.937 45.5946 131.398 46.0089 133.145 46.0089C134.348 46.0089 135.408 45.8375 136.324 45.4946C137.269 45.1231 138.143 44.5515 138.945 43.78L142.51 47.6378C140.334 50.1239 137.155 51.367 132.973 51.367C130.367 51.367 128.061 50.8669 126.057 49.8667C124.052 48.838 122.505 47.4234 121.417 45.6231C120.329 43.8228 119.784 41.7796 119.784 39.4935C119.784 37.236 120.314 35.2071 121.374 33.4068C122.462 31.5779 123.937 30.1634 125.799 29.1632C127.689 28.1345 129.794 27.6201 132.114 27.6201C134.376 27.6201 136.424 28.1059 138.257 29.0775C140.09 30.0491 141.522 31.4493 142.553 33.2782C143.613 35.0785 144.143 37.1789 144.143 39.5793ZM132.157 32.6781C130.639 32.6781 129.364 33.1067 128.333 33.964C127.302 34.8213 126.672 35.9929 126.443 37.4789H137.828C137.598 36.0215 136.968 34.8642 135.937 34.0069C134.906 33.121 133.646 32.6781 132.157 32.6781Z" fill="#3B3B3B"/>
<path d="M178.204 27.6201C181.097 27.6201 183.388 28.4774 185.078 30.192C186.796 31.878 187.655 34.4213 187.655 37.8218V51.0241H180.953V38.8506C180.953 37.0217 180.567 35.6643 179.794 34.7785C179.049 33.864 177.975 33.4068 176.572 33.4068C174.996 33.4068 173.75 33.9212 172.834 34.9499C171.918 35.9501 171.459 37.4503 171.459 39.4507V51.0241H164.758V38.8506C164.758 35.2214 163.297 33.4068 160.376 33.4068C158.829 33.4068 157.598 33.9212 156.681 34.9499C155.765 35.9501 155.306 37.4503 155.306 39.4507V51.0241H148.605V27.963H155.006V30.6206C155.865 29.649 156.91 28.906 158.142 28.3917C159.402 27.8773 160.777 27.6201 162.266 27.6201C163.898 27.6201 165.373 27.9487 166.691 28.606C168.008 29.2347 169.068 30.1634 169.87 31.3922C170.815 30.192 172.003 29.2632 173.435 28.606C174.896 27.9487 176.486 27.6201 178.204 27.6201Z" fill="#3B3B3B"/>
<path d="M207.324 27.6201C209.472 27.6201 211.419 28.1202 213.166 29.1204C214.942 30.092 216.331 31.4779 217.333 33.2782C218.336 35.0499 218.837 37.1217 218.837 39.4935C218.837 41.8654 218.336 43.9514 217.333 45.7517C216.331 47.5235 214.942 48.9094 213.166 49.9096C211.419 50.8812 209.472 51.367 207.324 51.367C204.374 51.367 202.054 50.4382 200.364 48.5808V59.3397H193.662V27.963H200.063V30.6206C201.724 28.6203 204.145 27.6201 207.324 27.6201ZM206.164 45.8803C207.882 45.8803 209.285 45.3088 210.374 44.1658C211.491 42.9941 212.049 41.4367 212.049 39.4935C212.049 37.5504 211.491 36.0072 210.374 34.8642C209.285 33.6926 207.882 33.1067 206.164 33.1067C204.445 33.1067 203.028 33.6926 201.911 34.8642C200.822 36.0072 200.278 37.5504 200.278 39.4935C200.278 41.4367 200.822 42.9941 201.911 44.1658C203.028 45.3088 204.445 45.8803 206.164 45.8803Z" fill="#3B3B3B"/>
<path d="M223.323 27.963H230.025V51.0241H223.323V27.963ZM226.674 24.7482C225.443 24.7482 224.44 24.391 223.667 23.6766C222.894 22.9622 222.507 22.0763 222.507 21.019C222.507 19.9617 222.894 19.0758 223.667 18.3614C224.44 17.647 225.443 17.2898 226.674 17.2898C227.906 17.2898 228.908 17.6327 229.681 18.3185C230.455 19.0044 230.841 19.8617 230.841 20.8904C230.841 22.0049 230.455 22.9336 229.681 23.6766C228.908 24.391 227.906 24.7482 226.674 24.7482Z" fill="#3B3B3B"/>
<path d="M242.646 31.0064C243.448 29.8919 244.522 29.0489 245.868 28.4774C247.243 27.9059 248.818 27.6201 250.593 27.6201V33.7926C249.849 33.7354 249.348 33.7069 249.09 33.7069C247.171 33.7069 245.667 34.2498 244.579 35.3357C243.491 36.393 242.947 37.9933 242.947 40.1365V51.0241H236.245V27.963H242.646V31.0064Z" fill="#3B3B3B"/>
<path d="M277.008 39.5793C277.008 39.665 276.966 40.2651 276.88 41.3796H259.395C259.71 42.8084 260.455 43.9371 261.629 44.7659C262.803 45.5946 264.264 46.0089 266.011 46.0089C267.214 46.0089 268.273 45.8375 269.19 45.4946C270.135 45.1231 271.008 44.5515 271.81 43.78L275.376 47.6378C273.199 50.1239 270.02 51.367 265.839 51.367C263.233 51.367 260.927 50.8669 258.922 49.8667C256.917 48.838 255.371 47.4234 254.283 45.6231C253.194 43.8228 252.65 41.7796 252.65 39.4935C252.65 37.236 253.18 35.2071 254.24 33.4068C255.328 31.5779 256.803 30.1634 258.665 29.1632C260.555 28.1345 262.66 27.6201 264.98 27.6201C267.242 27.6201 269.29 28.1059 271.123 29.0775C272.956 30.0491 274.388 31.4493 275.419 33.2782C276.479 35.0785 277.008 37.1789 277.008 39.5793ZM265.023 32.6781C263.505 32.6781 262.23 33.1067 261.199 33.964C260.168 34.8213 259.538 35.9929 259.309 37.4789H270.693C270.464 36.0215 269.834 34.8642 268.803 34.0069C267.772 33.121 266.512 32.6781 265.023 32.6781Z" fill="#3B3B3B"/>
<path d="M15.1532 22.27C15.0946 22.2506 15.0946 22.1531 15.1727 22.1336C15.6609 21.9973 16.8716 21.6271 17.5941 20.8672C18.3557 20.0879 18.6876 19.1137 18.8439 18.6266C18.8634 18.5486 18.961 18.5486 18.9806 18.6266C19.0977 19.1331 19.4102 20.1268 20.1913 20.8477C21.0309 21.6271 22.0659 21.9973 22.515 22.1142C22.5736 22.1336 22.5931 22.2311 22.515 22.2506C22.0268 22.4454 20.9138 22.8156 20.1327 23.6534C19.5078 24.3353 19.1368 25.4264 19.0001 25.933C18.9806 26.0109 18.8829 26.0109 18.8634 25.933C18.7267 25.4264 18.3362 24.3938 17.5551 23.6924C16.6373 22.8935 15.6023 22.4649 15.1532 22.27Z" fill="#FDCD60"/>
<path d="M9.72462 14.3401C9.66604 14.3206 9.66604 14.2232 9.74415 14.2037C10.2323 14.0673 11.443 13.6971 12.1655 12.9373C12.9271 12.1579 13.2591 11.1837 13.4153 10.6966C13.4348 10.6187 13.5324 10.6187 13.552 10.6966C13.6691 11.2032 13.9816 12.1969 14.7627 12.9178C15.6023 13.6971 16.6373 14.0673 17.0864 14.1842C17.145 14.2037 17.1645 14.3011 17.0864 14.3206C16.5982 14.5155 15.4852 14.8857 14.7041 15.7235C14.0792 16.4054 13.7082 17.4965 13.5715 18.0031C13.552 18.081 13.4543 18.081 13.4348 18.0031C13.2591 17.516 12.888 16.4833 12.107 15.7819C11.2087 14.9831 10.1737 14.5349 9.72462 14.3401Z" fill="#FDCD60"/>
<path d="M23.999 17.1652C23.96 17.1457 23.96 17.0873 23.999 17.0678C24.331 16.9704 25.1511 16.7171 25.6588 16.2105C26.1666 15.6844 26.4204 15.022 26.518 14.6713C26.5376 14.6128 26.5962 14.6128 26.6157 14.6713C26.6938 15.022 26.9086 15.7039 27.4358 16.191C28.0021 16.7366 28.7246 16.9704 29.0175 17.0678C29.0566 17.0873 29.0761 17.1457 29.0175 17.1652C28.6856 17.3016 27.924 17.5549 27.3772 18.1199C26.9476 18.5875 26.6938 19.3279 26.5962 19.6981C26.5766 19.7565 26.518 19.7565 26.4985 19.6981C26.4009 19.3474 26.147 18.646 25.6003 18.1589C25.0144 17.5938 24.2919 17.2821 23.999 17.1652Z" fill="#FDCD60"/>
<path d="M23.4328 27.9399C23.3938 27.9204 23.4133 27.8814 23.4328 27.8619C23.6867 27.8035 24.3116 27.5892 24.7021 27.1995C25.0926 26.7903 25.2879 26.2837 25.3465 26.0304C25.366 25.9915 25.4051 25.9915 25.4246 26.0304C25.4832 26.3032 25.6589 26.8098 26.0495 27.1995C26.4791 27.6086 27.0258 27.8035 27.2602 27.8619C27.2992 27.8814 27.2992 27.9204 27.2602 27.9399C27.0063 28.0373 26.4205 28.2321 26.0104 28.6802C25.6785 29.031 25.4832 29.6155 25.4051 29.8882C25.3856 29.9272 25.3465 29.9272 25.327 29.8882C25.2489 29.6155 25.0536 29.0699 24.6435 28.7192C24.2139 28.2711 23.6672 28.0373 23.4328 27.9399Z" fill="#FDCD60"/>
<path d="M19.0391 11.2812C19.0001 11.2617 19.0196 11.2227 19.0391 11.2032C19.293 11.1448 19.9179 10.9305 20.3084 10.5408C20.699 10.1316 20.8942 9.62504 20.9528 9.37175C20.9724 9.33279 21.0114 9.33279 21.0309 9.37175C21.0895 9.64453 21.2653 10.1511 21.6558 10.5408C22.0854 10.9499 22.6322 11.1448 22.8665 11.2032C22.9056 11.2227 22.9056 11.2617 22.8665 11.2812C22.6126 11.3786 22.0268 11.5734 21.6168 12.0216C21.2848 12.3723 21.0895 12.9568 21.0114 13.2295C20.9919 13.2685 20.9528 13.2685 20.9333 13.2295C20.8552 12.9568 20.6599 12.4112 20.2498 12.0605C19.8202 11.6124 19.2735 11.3786 19.0391 11.2812Z" fill="#FDCD60"/>
<path d="M11.0915 26.7513C11.0525 26.7318 11.0525 26.6733 11.0915 26.6733C11.404 26.5954 12.146 26.3616 12.5952 25.894C13.0638 25.4069 13.2786 24.8029 13.3762 24.4911C13.3958 24.4522 13.4544 24.4522 13.4739 24.4911C13.552 24.8029 13.7473 25.4264 14.2354 25.8745C14.7627 26.3616 15.4071 26.5759 15.6805 26.6538C15.7195 26.6733 15.7195 26.7318 15.6805 26.7318C15.368 26.8487 14.6846 27.0825 14.1964 27.6086C13.8058 28.0177 13.5715 28.7191 13.4934 29.0309C13.4739 29.0698 13.4153 29.0698 13.4153 29.0309C13.3372 28.7191 13.1029 28.0762 12.5952 27.628C12.0093 27.1604 11.3649 26.8877 11.0915 26.7513Z" fill="#FDCD60"/>
</g>
<defs>
<clipPath id="clip0_25_459">
<rect width="290" height="77" fill="white"/>
</clipPath>
</defs>
</svg>
