<svg width="68" height="68" viewBox="0 0 68 68" fill="none" xmlns="http://www.w3.org/2000/svg">
<path d="M34 0C15.2527 0 0 15.2527 0 34C0 52.7473 15.2527 68 34 68C52.7488 68 68 52.7473 68 34C68 15.2527 52.7488 0 34 0ZM34 65.0435C16.8817 65.0435 2.95652 51.1183 2.95652 34C2.95652 16.8817 16.8817 2.95652 34 2.95652C51.1168 2.95652 65.0435 16.8817 65.0435 34C65.0435 51.1183 51.1168 65.0435 34 65.0435Z" fill="#FDCD60"/>
<ellipse cx="34.8293" cy="34" rx="32.3415" ry="32.3415" fill="#FDCD60"/>
<path d="M26.6088 28.087C26.6088 25.642 24.6191 23.6522 22.174 23.6522C19.729 23.6522 17.7393 25.642 17.7393 28.087C17.7393 30.532 19.729 32.5218 22.174 32.5218C24.6191 32.5218 26.6088 30.532 26.6088 28.087ZM20.6958 28.087C20.6958 27.2725 21.3595 26.6087 22.174 26.6087C22.9886 26.6087 23.6523 27.2725 23.6523 28.087C23.6523 28.9015 22.9886 29.5653 22.174 29.5653C21.3595 29.5653 20.6958 28.9015 20.6958 28.087Z" fill="white"/>
<path d="M45.8259 23.6522C43.3808 23.6522 41.3911 25.642 41.3911 28.087C41.3911 30.532 43.3808 32.5218 45.8259 32.5218C48.2709 32.5218 50.2607 30.532 50.2607 28.087C50.2607 25.642 48.2709 23.6522 45.8259 23.6522ZM45.8259 29.5653C45.0099 29.5653 44.3476 28.9015 44.3476 28.087C44.3476 27.2725 45.0099 26.6087 45.8259 26.6087C46.6419 26.6087 47.3041 27.2725 47.3041 28.087C47.3041 28.9015 46.6419 29.5653 45.8259 29.5653Z" fill="white"/>
<path d="M33.9999 41.3912C28.4889 41.3912 23.2381 43.7254 19.5942 47.7965C19.0502 48.4056 19.102 49.3398 19.7095 49.8838C20.3186 50.4293 21.2528 50.3761 21.7968 49.7685C24.8805 46.3227 29.3286 44.3478 33.9999 44.3478C38.6712 44.3478 43.1193 46.3227 46.2029 49.7685C46.4941 50.0952 46.8992 50.2608 47.3042 50.2608C47.6546 50.2608 48.0094 50.1366 48.2902 49.8838C48.8978 49.3398 48.9495 48.4056 48.4055 47.7965C44.7616 43.7269 39.5123 41.3912 33.9999 41.3912Z" fill="white"/>
</svg>
